<svg xmlns="http://www.w3.org/2000/svg" viewBox="0 0 151 41" fill="none">
  <path d="M65.76 22.734a2.714 2.714 0 0 0 2.72-2.707 2.714 2.714 0 0 0-2.72-2.708 2.714 2.714 0 0 0-2.72 2.708 2.714 2.714 0 0 0 2.72 2.707zM1.822 33.636a.954.954 0 0 1-.704-.272c-.183-.18-.274-.413-.274-.7V7.39c0-.285.09-.518.274-.7a.956.956 0 0 1 .704-.273h4.257c.286 0 .52.092.704.272.18.183.273.416.273.7v9.721h5.772l10.308-9.954c.13-.207.313-.382.548-.525.234-.144.532-.214.896-.214h4.727c.259 0 .462.085.606.253a.846.846 0 0 1 .215.564.847.847 0 0 1-.157.467l-11.559 11.82 12.302 12.792a.979.979 0 0 1 .079.428c0 .26-.086.475-.255.642a.831.831 0 0 1-.606.253H25.05c-.391 0-.677-.082-.86-.253a4.079 4.079 0 0 1-.43-.447l-10.7-10.304H7.055v10.031a.955.955 0 0 1-.274.701.954.954 0 0 1-.704.273H1.822zM123.939 33.636a.924.924 0 0 1-.704-.291.957.957 0 0 1-.274-.681V7.39c0-.285.098-.518.293-.7a.981.981 0 0 1 .685-.273h4.257c.285 0 .52.092.703.272a.943.943 0 0 1 .274.7v16.943l15.613-17.215c.13-.182.293-.343.489-.486.195-.144.45-.214.762-.214h3.83c.286 0 .52.092.704.272a.946.946 0 0 1 .273.7v25.272c0 .285-.09.518-.273.7a.953.953 0 0 1-.704.273h-4.257a.97.97 0 0 1-.685-.272.91.91 0 0 1-.293-.701V16.222l-15.613 16.712a1.54 1.54 0 0 1-.391.467c-.183.155-.457.233-.821.233h-3.868v.002zM42 32.902H46.8a1.384 1.384 0 0 1-1.29.898H43.29c-.59 0-1.095-.38-1.29-.898zM41.792 30.898h5.222a9.23 9.23 0 0 0-.1.812h-5.027c-.027-.27-.059-.542-.095-.812z" fill="#fff"/>
  <path d="M58.387 20.178c0 6.543-4.538 12.036-10.652 13.52.218-.38.342-.813.342-1.278 0-2.235.895-4.407 2.456-5.954a8.558 8.558 0 0 0 2.564-6.133 8.584 8.584 0 0 0-2.588-6.171 8.669 8.669 0 0 0-6.232-2.49 8.683 8.683 0 0 0-6.014 2.529 8.623 8.623 0 0 0-2.563 5.972 8.584 8.584 0 0 0 2.502 6.234c1.625 1.64 2.517 3.783 2.517 6.018 0 .465.125.898.342 1.277-6.107-1.483-10.645-6.976-10.645-13.52 0-7.689 6.263-13.92 13.986-13.92 7.722 0 13.985 6.229 13.985 13.916zM94.425 2.323a13.887 13.887 0 0 1 5.482 16.293 2.548 2.548 0 0 0-.882-.985c-1.875-1.231-3.207-3.167-3.647-5.318a8.571 8.571 0 0 0-3.734-5.504 8.683 8.683 0 0 0-6.6-1.246 8.647 8.647 0 0 0-5.518 3.81 8.6 8.6 0 0 0-1.188 6.39 8.639 8.639 0 0 0 3.6 5.417 8.67 8.67 0 0 0 6.605 1.35c2.27-.448 4.558-.012 6.435 1.218.388.256.82.39 1.258.419-4.606 4.26-11.71 5.01-17.199 1.41-6.449-4.23-8.235-12.865-3.986-19.284 4.25-6.42 12.925-8.198 19.374-3.97z" fill="#fff"/>
  <path d="M98.125 37.73a13.888 13.888 0 0 1-5.481-16.292c.198.389.494.73.882.985 1.874 1.23 3.206 3.167 3.646 5.317a8.571 8.571 0 0 0 3.734 5.505 8.684 8.684 0 0 0 6.601 1.245 8.647 8.647 0 0 0 5.518-3.809 8.595 8.595 0 0 0 1.187-6.39 8.636 8.636 0 0 0-3.599-5.417 8.67 8.67 0 0 0-6.606-1.35c-2.27.447-4.557.012-6.434-1.219a2.591 2.591 0 0 0-1.259-.418c4.607-4.26 11.711-5.011 17.2-1.411 6.449 4.23 8.235 12.865 3.985 19.285-4.249 6.421-12.925 8.2-19.374 3.97z" fill="#fff"/>
  <path d="M107.387 7.752l-3.077 4.783-10.733 16.689-2.446 3.805a.656.656 0 0 1-.562.308h-4.843a.667.667 0 0 1-.563-1.029l3.077-4.787 10.728-16.69 2.446-3.804a.69.69 0 0 1 .57-.308h4.843c.526 0 .846.588.56 1.033z" fill="#fff"/>
</svg>
